<svg xmlns="http://www.w3.org/2000/svg" xmlns:xlink="http://www.w3.org/1999/xlink" width="110.744" height="81.97" viewBox="0 0 110.744 81.97"><defs><filter id="a" x="0" y="0" width="110.744" height="81.97" filterUnits="userSpaceOnUse"><feOffset dy="3" input="SourceAlpha"/><feGaussianBlur stdDeviation="6.5" result="b"/><feFlood flood-color="#69fff5" flood-opacity="0.2"/><feComposite operator="in" in2="b"/><feComposite in="SourceGraphic"/></filter></defs><g transform="matrix(1, 0, 0, 1, 0, 0)" filter="url(#a)"><path d="M71.828-307.919,43.122-336.625a7.109,7.109,0,0,1-2.089-5.077,7.108,7.108,0,0,1,2.089-5.077l28.706-28.706a7.131,7.131,0,0,1,10.085,0,7.131,7.131,0,0,1,0,10.085l-23.7,23.7,23.7,23.7a7.132,7.132,0,0,1,0,10.086,7.109,7.109,0,0,1-5.043,2.088A7.109,7.109,0,0,1,71.828-307.919Z" transform="translate(397.07 100.5) rotate(-90)" fill="#a5ffd2"/></g></svg>