<svg xmlns="http://www.w3.org/2000/svg" width="669.745" height="592.77" viewBox="0 0 669.745 592.77">
  <g id="Group_13" data-name="Group 13" transform="translate(-1054.619 -183.882)" opacity="0.88">
    <g id="undraw_Add_files_re_v09g" transform="translate(1054.611 318.671) rotate(-25)">
      <path id="Path_67" data-name="Path 67" d="M432.7,99.917l-14.214,3.665-175.119,45.16-14.214,3.665a26.912,26.912,0,0,0-19.318,32.743L271.47,424.157a26.912,26.912,0,0,0,32.743,19.318l.037-.01,203.473-52.472.037-.009a26.912,26.912,0,0,0,19.318-32.743L465.442,119.235A26.912,26.912,0,0,0,432.7,99.917Z" transform="translate(-208.978 -99.06)" fill="#f2f2f2"/>
      <path id="Path_68" data-name="Path 68" d="M440.748,113.526l-16.835,4.342L254.036,161.675,237.2,166.017a19.165,19.165,0,0,0-13.757,23.317L285.079,428.34A19.165,19.165,0,0,0,308.4,442.1l.037-.009,203.473-52.472.037-.01A19.165,19.165,0,0,0,525.7,366.288L464.064,127.283A19.165,19.165,0,0,0,440.748,113.526Z" transform="translate(-215.093 -105.175)" fill="#fff"/>
      <path id="Path_69" data-name="Path 69" d="M504.427,245.6,401.5,272.144a4.477,4.477,0,1,1-2.236-8.67L502.192,236.93a4.476,4.476,0,1,1,2.236,8.669Z" transform="translate(-291.485 -159.852)" fill="#f2f2f2"/>
      <path id="Path_70" data-name="Path 70" d="M529.062,263.535,408.249,294.69a4.477,4.477,0,0,1-2.236-8.67l120.813-31.155a4.477,4.477,0,1,1,2.236,8.67Z" transform="translate(-294.467 -167.769)" fill="#f2f2f2"/>
      <path id="Path_71" data-name="Path 71" d="M534.7,362.973,431.763,389.517a4.477,4.477,0,0,1-2.236-8.67L532.46,354.3a4.477,4.477,0,0,1,2.236,8.67Z" transform="translate(-304.846 -211.663)" fill="#f2f2f2"/>
      <path id="Path_72" data-name="Path 72" d="M559.33,380.909,438.517,412.064a4.477,4.477,0,1,1-2.236-8.67L557.095,372.24a4.477,4.477,0,0,1,2.236,8.669Z" transform="translate(-307.827 -219.58)" fill="#f2f2f2"/>
      <path id="Path_73" data-name="Path 73" d="M564.964,480.346,462.032,506.89a4.477,4.477,0,0,1-2.236-8.67l102.932-26.544a4.477,4.477,0,0,1,2.236,8.67Z" transform="translate(-318.207 -263.473)" fill="#f2f2f2"/>
      <path id="Path_74" data-name="Path 74" d="M589.6,498.282,468.786,529.437a4.477,4.477,0,1,1-2.236-8.669l120.813-31.155a4.477,4.477,0,1,1,2.236,8.67Z" transform="translate(-321.189 -271.39)" fill="#f2f2f2"/>
      <path id="Path_75" data-name="Path 75" d="M336.945,319.847l-36.427,9.394A2.149,2.149,0,0,1,297.9,327.7l-8.362-32.425a2.149,2.149,0,0,1,1.543-2.615l36.427-9.394a2.149,2.149,0,0,1,2.615,1.543l8.362,32.425A2.149,2.149,0,0,1,336.945,319.847Z" transform="translate(-244.508 -180.338)" fill="#e6e6e6"/>
      <path id="Path_76" data-name="Path 76" d="M367.214,437.22l-36.427,9.394a2.149,2.149,0,0,1-2.615-1.542l-8.362-32.425a2.149,2.149,0,0,1,1.543-2.614l36.427-9.394a2.149,2.149,0,0,1,2.615,1.542l8.362,32.425A2.149,2.149,0,0,1,367.214,437.22Z" transform="translate(-257.869 -232.149)" fill="#e6e6e6"/>
      <path id="Path_77" data-name="Path 77" d="M397.482,554.594l-36.427,9.394a2.149,2.149,0,0,1-2.615-1.543l-8.362-32.425a2.149,2.149,0,0,1,1.543-2.615l36.427-9.394a2.149,2.149,0,0,1,2.615,1.543l8.362,32.425A2.149,2.149,0,0,1,397.482,554.594Z" transform="translate(-271.229 -283.959)" fill="#e6e6e6"/>
      <path id="Path_78" data-name="Path 78" d="M676.281,209.052H466.075a26.912,26.912,0,0,0-26.882,26.882V482.759a26.912,26.912,0,0,0,26.882,26.882H676.281a26.912,26.912,0,0,0,26.882-26.882V235.934A26.912,26.912,0,0,0,676.281,209.052Z" transform="translate(-310.596 -147.61)" fill="#e6e6e6"/>
      <path id="Path_79" data-name="Path 79" d="M682.4,222.906H472.19a19.165,19.165,0,0,0-19.143,19.143V488.875a19.165,19.165,0,0,0,19.143,19.143H682.4a19.165,19.165,0,0,0,19.143-19.143V242.049A19.165,19.165,0,0,0,682.4,222.906Z" transform="translate(-316.711 -153.725)" fill="#fff"/>
      <circle id="Ellipse_12" data-name="Ellipse 12" cx="49.072" cy="49.072" r="49.072" transform="translate(338.697 293.919)" fill="#6c63ff"/>
      <path id="Path_80" data-name="Path 80" d="M903.036,683.085H885.968V666.016a6.4,6.4,0,0,0-12.8,0v17.069H856.1a6.4,6.4,0,0,0,0,12.8h17.069v17.069a6.4,6.4,0,1,0,12.8,0V695.886h17.069a6.4,6.4,0,0,0,0-12.8Z" transform="translate(-491.798 -346.495)" fill="#fff"/>
      <path id="Path_81" data-name="Path 81" d="M719.461,458.641h-106.3a4.477,4.477,0,1,1,0-8.953h106.3a4.477,4.477,0,1,1,0,8.953Z" transform="translate(-385.412 -253.83)" fill="#e6e6e6"/>
      <path id="Path_82" data-name="Path 82" d="M737.927,485.688H613.161a4.477,4.477,0,1,1,0-8.953H737.927a4.477,4.477,0,1,1,0,8.953Z" transform="translate(-385.412 -265.769)" fill="#e6e6e6"/>
      <path id="Path_83" data-name="Path 83" d="M719.461,579.854h-106.3a4.477,4.477,0,1,1,0-8.953h106.3a4.477,4.477,0,1,1,0,8.953Z" transform="translate(-385.412 -307.335)" fill="#e6e6e6"/>
      <path id="Path_84" data-name="Path 84" d="M737.927,606.9H613.161a4.477,4.477,0,0,1,0-8.953H737.927a4.477,4.477,0,0,1,0,8.953Z" transform="translate(-385.412 -319.274)" fill="#e6e6e6"/>
      <path id="Path_85" data-name="Path 85" d="M542.646,475.188H505.028a2.149,2.149,0,0,1-2.146-2.146V439.556a2.149,2.149,0,0,1,2.147-2.147h37.618a2.149,2.149,0,0,1,2.147,2.147v33.486A2.149,2.149,0,0,1,542.646,475.188Z" transform="translate(-338.709 -248.41)" fill="#e6e6e6"/>
      <path id="Path_86" data-name="Path 86" d="M542.646,596.4H505.028a2.149,2.149,0,0,1-2.146-2.147V560.769a2.149,2.149,0,0,1,2.147-2.146h37.618a2.149,2.149,0,0,1,2.147,2.147v33.486A2.149,2.149,0,0,1,542.646,596.4Z" transform="translate(-338.709 -301.915)" fill="#e6e6e6"/>
      <path id="Path_87" data-name="Path 87" d="M741.743,323.706H663.372a4.477,4.477,0,1,1,0-8.953h78.371a4.477,4.477,0,1,1,0,8.953Z" transform="translate(-407.576 -194.267)" fill="#ccc"/>
      <path id="Path_88" data-name="Path 88" d="M760.209,350.754H663.372a4.477,4.477,0,1,1,0-8.953h96.836a4.477,4.477,0,0,1,0,8.953Z" transform="translate(-407.576 -206.207)" fill="#ccc"/>
      <path id="Path_89" data-name="Path 89" d="M577.067,342.655H504.817a2.149,2.149,0,0,1-2.146-2.147V284.121a2.149,2.149,0,0,1,2.147-2.147h72.251a2.149,2.149,0,0,1,2.147,2.147v56.387A2.149,2.149,0,0,1,577.067,342.655Z" transform="translate(-338.615 -179.799)" fill="#84dcc6"/>
    </g>
    <g id="undraw_Add_files_re_v09g-2" data-name="undraw_Add_files_re_v09g" transform="translate(1406.594 225.396) rotate(28)">
      <path id="Path_67-2" data-name="Path 67" d="M432.7,99.917l-14.214,3.665-175.119,45.16-14.214,3.665a26.912,26.912,0,0,0-19.318,32.743L271.47,424.157a26.912,26.912,0,0,0,32.743,19.318l.037-.01,203.473-52.472.037-.009a26.912,26.912,0,0,0,19.318-32.743L465.442,119.235A26.912,26.912,0,0,0,432.7,99.917Z" transform="translate(-208.978 -99.06)" fill="#f2f2f2"/>
      <path id="Path_68-2" data-name="Path 68" d="M440.748,113.526l-16.835,4.342L254.036,161.675,237.2,166.017a19.165,19.165,0,0,0-13.757,23.317L285.079,428.34A19.165,19.165,0,0,0,308.4,442.1l.037-.009,203.473-52.472.037-.01A19.165,19.165,0,0,0,525.7,366.288L464.064,127.283A19.165,19.165,0,0,0,440.748,113.526Z" transform="translate(-215.093 -105.175)" fill="#fff"/>
      <path id="Path_69-2" data-name="Path 69" d="M504.427,245.6,401.5,272.144a4.477,4.477,0,1,1-2.236-8.67L502.192,236.93a4.476,4.476,0,1,1,2.236,8.669Z" transform="translate(-291.485 -159.852)" fill="#f2f2f2"/>
      <path id="Path_70-2" data-name="Path 70" d="M529.062,263.535,408.249,294.69a4.477,4.477,0,0,1-2.236-8.67l120.813-31.155a4.477,4.477,0,1,1,2.236,8.67Z" transform="translate(-294.467 -167.769)" fill="#f2f2f2"/>
      <path id="Path_71-2" data-name="Path 71" d="M534.7,362.973,431.763,389.517a4.477,4.477,0,0,1-2.236-8.67L532.46,354.3a4.477,4.477,0,0,1,2.236,8.67Z" transform="translate(-304.846 -211.663)" fill="#f2f2f2"/>
      <path id="Path_72-2" data-name="Path 72" d="M559.33,380.909,438.517,412.064a4.477,4.477,0,1,1-2.236-8.67L557.095,372.24a4.477,4.477,0,0,1,2.236,8.669Z" transform="translate(-307.827 -219.58)" fill="#f2f2f2"/>
      <path id="Path_73-2" data-name="Path 73" d="M564.964,480.346,462.032,506.89a4.477,4.477,0,0,1-2.236-8.67l102.932-26.544a4.477,4.477,0,0,1,2.236,8.67Z" transform="translate(-318.207 -263.473)" fill="#f2f2f2"/>
      <path id="Path_74-2" data-name="Path 74" d="M589.6,498.282,468.786,529.437a4.477,4.477,0,1,1-2.236-8.669l120.813-31.155a4.477,4.477,0,1,1,2.236,8.67Z" transform="translate(-321.189 -271.39)" fill="#f2f2f2"/>
      <path id="Path_75-2" data-name="Path 75" d="M336.945,319.847l-36.427,9.394A2.149,2.149,0,0,1,297.9,327.7l-8.362-32.425a2.149,2.149,0,0,1,1.543-2.615l36.427-9.394a2.149,2.149,0,0,1,2.615,1.543l8.362,32.425A2.149,2.149,0,0,1,336.945,319.847Z" transform="translate(-244.508 -180.338)" fill="#e6e6e6"/>
      <path id="Path_76-2" data-name="Path 76" d="M367.214,437.22l-36.427,9.394a2.149,2.149,0,0,1-2.615-1.542l-8.362-32.425a2.149,2.149,0,0,1,1.543-2.614l36.427-9.394a2.149,2.149,0,0,1,2.615,1.542l8.362,32.425A2.149,2.149,0,0,1,367.214,437.22Z" transform="translate(-257.869 -232.149)" fill="#e6e6e6"/>
      <path id="Path_77-2" data-name="Path 77" d="M397.482,554.594l-36.427,9.394a2.149,2.149,0,0,1-2.615-1.543l-8.362-32.425a2.149,2.149,0,0,1,1.543-2.615l36.427-9.394a2.149,2.149,0,0,1,2.615,1.543l8.362,32.425A2.149,2.149,0,0,1,397.482,554.594Z" transform="translate(-271.229 -283.959)" fill="#e6e6e6"/>
      <path id="Path_78-2" data-name="Path 78" d="M676.281,209.052H466.075a26.912,26.912,0,0,0-26.882,26.882V482.759a26.912,26.912,0,0,0,26.882,26.882H676.281a26.912,26.912,0,0,0,26.882-26.882V235.934A26.912,26.912,0,0,0,676.281,209.052Z" transform="translate(-310.596 -147.61)" fill="#e6e6e6"/>
      <path id="Path_79-2" data-name="Path 79" d="M682.4,222.906H472.19a19.165,19.165,0,0,0-19.143,19.143V488.875a19.165,19.165,0,0,0,19.143,19.143H682.4a19.165,19.165,0,0,0,19.143-19.143V242.049A19.165,19.165,0,0,0,682.4,222.906Z" transform="translate(-316.711 -153.725)" fill="#fff"/>
      <circle id="Ellipse_12-2" data-name="Ellipse 12" cx="49.072" cy="49.072" r="49.072" transform="translate(338.697 293.919)" fill="#84dcc6"/>
      <path id="Path_80-2" data-name="Path 80" d="M903.036,683.085H885.968V666.016a6.4,6.4,0,0,0-12.8,0v17.069H856.1a6.4,6.4,0,0,0,0,12.8h17.069v17.069a6.4,6.4,0,1,0,12.8,0V695.886h17.069a6.4,6.4,0,0,0,0-12.8Z" transform="translate(-491.798 -346.495)" fill="#fff"/>
      <path id="Path_81-2" data-name="Path 81" d="M719.461,458.641h-106.3a4.477,4.477,0,1,1,0-8.953h106.3a4.477,4.477,0,1,1,0,8.953Z" transform="translate(-385.412 -253.83)" fill="#e6e6e6"/>
      <path id="Path_82-2" data-name="Path 82" d="M737.927,485.688H613.161a4.477,4.477,0,1,1,0-8.953H737.927a4.477,4.477,0,1,1,0,8.953Z" transform="translate(-385.412 -265.769)" fill="#e6e6e6"/>
      <path id="Path_83-2" data-name="Path 83" d="M719.461,579.854h-106.3a4.477,4.477,0,1,1,0-8.953h106.3a4.477,4.477,0,1,1,0,8.953Z" transform="translate(-385.412 -307.335)" fill="#e6e6e6"/>
      <path id="Path_84-2" data-name="Path 84" d="M737.927,606.9H613.161a4.477,4.477,0,0,1,0-8.953H737.927a4.477,4.477,0,0,1,0,8.953Z" transform="translate(-385.412 -319.274)" fill="#e6e6e6"/>
      <path id="Path_85-2" data-name="Path 85" d="M542.646,475.188H505.028a2.149,2.149,0,0,1-2.146-2.146V439.556a2.149,2.149,0,0,1,2.147-2.147h37.618a2.149,2.149,0,0,1,2.147,2.147v33.486A2.149,2.149,0,0,1,542.646,475.188Z" transform="translate(-338.709 -248.41)" fill="#e6e6e6"/>
      <path id="Path_86-2" data-name="Path 86" d="M542.646,596.4H505.028a2.149,2.149,0,0,1-2.146-2.147V560.769a2.149,2.149,0,0,1,2.147-2.146h37.618a2.149,2.149,0,0,1,2.147,2.147v33.486A2.149,2.149,0,0,1,542.646,596.4Z" transform="translate(-338.709 -301.915)" fill="#e6e6e6"/>
      <path id="Path_87-2" data-name="Path 87" d="M741.743,323.706H663.372a4.477,4.477,0,1,1,0-8.953h78.371a4.477,4.477,0,1,1,0,8.953Z" transform="translate(-407.576 -194.267)" fill="#ccc"/>
      <path id="Path_88-2" data-name="Path 88" d="M760.209,350.754H663.372a4.477,4.477,0,1,1,0-8.953h96.836a4.477,4.477,0,0,1,0,8.953Z" transform="translate(-407.576 -206.207)" fill="#ccc"/>
      <path id="Path_89-2" data-name="Path 89" d="M577.067,342.655H504.817a2.149,2.149,0,0,1-2.146-2.147V284.121a2.149,2.149,0,0,1,2.147-2.147h72.251a2.149,2.149,0,0,1,2.147,2.147v56.387A2.149,2.149,0,0,1,577.067,342.655Z" transform="translate(-338.615 -179.799)" fill="#b8b8f3"/>
    </g>
  </g>
</svg>
