<svg xmlns="http://www.w3.org/2000/svg" xmlns:xlink="http://www.w3.org/1999/xlink" width="468" height="186" viewBox="0 0 468 186">
  <defs>
    <radialGradient id="radial-gradient" cx="0.055" cy="0.581" r="0.927" gradientTransform="matrix(1, 0.003, -0.015, 5.582, 0.008, -2.663)" gradientUnits="objectBoundingBox">
      <stop offset="0" stop-color="#c5f1ff"/>
      <stop offset="1" stop-color="#b8b8f3"/>
    </radialGradient>
  </defs>
  <g id="Group_49" data-name="Group 49" transform="translate(-1452)">
    <path id="Rectangle_7" data-name="Rectangle 7" d="M0,0H164a0,0,0,0,1,0,0V186a0,0,0,0,1,0,0H23A23,23,0,0,1,0,163V0A0,0,0,0,1,0,0Z" transform="translate(1756)" fill="#b8b8f3"/>
    <g id="medical-report" transform="translate(1792.386 25.991)">
      <path id="Path_1" data-name="Path 1" d="M85.7,66.261H79.773V3.335A3.488,3.488,0,0,0,76.156,0H12.582A3.488,3.488,0,0,0,8.965,3.335V66.78h-5A3.967,3.967,0,0,0,0,70.743v55.917a6.388,6.388,0,0,0,6.38,6.38H90.126a5.763,5.763,0,0,0,5.757-5.757V76.444A10.2,10.2,0,0,0,85.7,66.261ZM12.863,3.9H75.875V75.615H72.5V51.272a3.464,3.464,0,0,0-3.46-3.46H20.091a3.464,3.464,0,0,0-3.46,3.46V66.78H12.863ZM82.631,126.661a2.485,2.485,0,0,1-2.483,2.483H6.381A2.485,2.485,0,0,1,3.9,126.661V70.743a.065.065,0,0,1,.065-.065H21.378a.065.065,0,0,1,.054.029l5.252,7.932a1.95,1.95,0,0,0,1.625.873h4.822a1.949,1.949,0,0,0,0-3.9H29.356l-4.674-7.059a3.953,3.953,0,0,0-3.3-1.775h-.85V51.709H68.6V75.615H40.926a1.949,1.949,0,0,0,0,3.9H82.033a.6.6,0,0,1,.6.6Zm9.354.623a1.862,1.862,0,0,1-1.86,1.86h-4.1a6.358,6.358,0,0,0,.5-2.483V80.11a4.5,4.5,0,0,0-4.5-4.5h-2.26V70.158H85.7a6.293,6.293,0,0,1,6.286,6.286Zm0,0" transform="translate(0 0)" fill="#fff"/>
      <path id="Path_2" data-name="Path 2" d="M112.54,333a17.54,17.54,0,1,0,17.54,17.54A17.56,17.56,0,0,0,112.54,333Zm0,31.181a13.642,13.642,0,1,1,13.642-13.642A13.657,13.657,0,0,1,112.54,364.182Zm0,0" transform="translate(-70.315 -246.472)" fill="#fff"/>
      <path id="Path_3" data-name="Path 3" d="M138.4,364.457h-2.288v-2.288A3.172,3.172,0,0,0,132.942,359h-4.316a3.173,3.173,0,0,0-3.169,3.169v2.288h-2.288A3.173,3.173,0,0,0,120,367.626v4.316a3.173,3.173,0,0,0,3.169,3.169h2.288V377.4a3.173,3.173,0,0,0,3.169,3.169h4.316a3.172,3.172,0,0,0,3.169-3.169V375.11H138.4a3.172,3.172,0,0,0,3.169-3.169v-4.316A3.173,3.173,0,0,0,138.4,364.457Zm-.729,6.756h-2.288a3.172,3.172,0,0,0-3.169,3.169v2.288h-2.858v-2.288a3.172,3.172,0,0,0-3.169-3.169H123.9v-2.858h2.288a3.172,3.172,0,0,0,3.169-3.169V362.9h2.858v2.288a3.172,3.172,0,0,0,3.169,3.169h2.288Zm0,0" transform="translate(-88.819 -265.716)" fill="#fff"/>
      <path id="Path_4" data-name="Path 4" d="M72.607,65.7h29.164a3.611,3.611,0,0,0,3.607-3.607V50.562a1.949,1.949,0,1,0-3.9,0V61.8H72.9V37.9h28.583v4.869a1.949,1.949,0,0,0,3.9,0V37.607A3.611,3.611,0,0,0,101.771,34H72.607A3.611,3.611,0,0,0,69,37.607V62.094A3.611,3.611,0,0,0,72.607,65.7Zm0,0" transform="translate(-51.071 -25.165)" fill="#fff"/>
      <path id="Path_5" data-name="Path 5" d="M108.707,76.248h5.333a2.315,2.315,0,0,0,2.312-2.313V71.353h2.582a2.315,2.315,0,0,0,2.313-2.312V63.708a2.315,2.315,0,0,0-2.313-2.312h-2.582V58.813A2.315,2.315,0,0,0,114.04,56.5h-5.333a2.315,2.315,0,0,0-2.312,2.313V61.4h-2.582a2.315,2.315,0,0,0-2.313,2.312v5.333a2.315,2.315,0,0,0,2.313,2.312H106.4v2.582A2.315,2.315,0,0,0,108.707,76.248Zm-3.31-8.793V65.293h2.582a2.317,2.317,0,0,0,2.313-2.313V60.4h2.162V62.98a2.317,2.317,0,0,0,2.313,2.313h2.582v2.162h-2.582a2.317,2.317,0,0,0-2.313,2.313v2.582h-2.162V69.768a2.317,2.317,0,0,0-2.313-2.313Zm0,0" transform="translate(-75.126 -41.819)" fill="#fff"/>
    </g>
    <path id="Path_104" data-name="Path 104" d="M0,0H312V93H0Z" transform="translate(1452)" fill="url(#radial-gradient)"/>
    <text id="Med_Scan" data-name="Med Scan" transform="translate(1482 63)" fill="#fff" font-size="45" font-family="Montserrat-Regular, Montserrat" letter-spacing="0.083em"><tspan x="0" y="0">Med Scan</tspan></text>
  </g>
</svg>
