<svg xmlns="http://www.w3.org/2000/svg" xmlns:xlink="http://www.w3.org/1999/xlink" width="87" height="99.671" viewBox="0 0 87 99.671">
  <defs>
    <filter id="Down_Arrow" x="5.889" y="0" width="75.335" height="99.671" filterUnits="userSpaceOnUse">
      <feOffset dy="3" input="SourceAlpha"/>
      <feGaussianBlur stdDeviation="6.5" result="blur"/>
      <feFlood flood-color="#69fff5" flood-opacity="0.2"/>
      <feComposite operator="in" in2="blur"/>
      <feComposite in="SourceGraphic"/>
    </filter>
  </defs>
  <g id="Group_7" data-name="Group 7" transform="translate(-1452 -470.111)">
    <g id="Rectangle_32" data-name="Rectangle 32" transform="translate(1452 473)" fill="#fff" stroke="#84dcc6" stroke-width="2">
      <rect width="87" height="87" rx="8" stroke="none"/>
      <rect x="1" y="1" width="85" height="85" rx="7" fill="none"/>
    </g>
    <g transform="matrix(1, 0, 0, 1, 1452, 470.11)" filter="url(#Down_Arrow)">
      <path id="Down_Arrow-2" data-name="Down_Arrow" d="M67.074-318.673,42.8-342.947a6.011,6.011,0,0,1-1.766-4.293,6.011,6.011,0,0,1,1.766-4.293l24.274-24.274a6.03,6.03,0,0,1,8.528,0,6.03,6.03,0,0,1,0,8.528L55.561-347.239,75.6-327.2a6.031,6.031,0,0,1,0,8.529,6.011,6.011,0,0,1-4.264,1.766A6.011,6.011,0,0,1,67.074-318.673Z" transform="translate(102.76 -300.4) rotate(180)" fill="#b8b8f3"/>
    </g>
  </g>
</svg>
